<svg viewBox="-0.015 -4.015 8.03 4.03" xmlns="http://www.w3.org/2000/svg">
<circle cx="0.5" cy="-0.5" r="0.5" fill="black
" stroke="black" stroke-width="0.03"/>
<circle cx="1.5" cy="-0.5" r="0.5" fill="pink
" stroke="black" stroke-width="0.03"/>
<circle cx="2.5" cy="-0.5" r="0.5" fill="black
" stroke="black" stroke-width="0.03"/>
<circle cx="3.5" cy="-0.5" r="0.5" fill="black
" stroke="black" stroke-width="0.03"/>
<circle cx="4.5" cy="-0.5" r="0.5" fill="pink
" stroke="black" stroke-width="0.03"/>
<circle cx="5.5" cy="-0.5" r="0.5" fill="black
" stroke="black" stroke-width="0.03"/>
<circle cx="6.5" cy="-0.5" r="0.5" fill="pink
" stroke="black" stroke-width="0.03"/>
<circle cx="7.5" cy="-0.5" r="0.5" fill="pink
" stroke="black" stroke-width="0.03"/>
<circle cx="1.0" cy="-1.3660254040000002" r="0.5" fill="pink
" stroke="black" stroke-width="0.03"/>
<circle cx="2.0" cy="-1.3660254040000002" r="0.5" fill="black
" stroke="black" stroke-width="0.03"/>
<circle cx="3.0" cy="-1.3660254040000002" r="0.5" fill="black
" stroke="black" stroke-width="0.03"/>
<circle cx="4.0" cy="-1.3660254040000002" r="0.5" fill="black
" stroke="black" stroke-width="0.03"/>
<circle cx="5.0" cy="-1.3660254040000002" r="0.5" fill="pink
" stroke="black" stroke-width="0.03"/>
<circle cx="6.0" cy="-1.3660254040000002" r="0.5" fill="black
" stroke="black" stroke-width="0.03"/>
<circle cx="7.0" cy="-1.3660254040000002" r="0.5" fill="pink
" stroke="black" stroke-width="0.03"/>
<circle cx="0.5" cy="-2.2320508080000003" r="0.5" fill="pink
" stroke="black" stroke-width="0.03"/>
<circle cx="1.5" cy="-2.2320508080000003" r="0.5" fill="black
" stroke="black" stroke-width="0.03"/>
<circle cx="2.5" cy="-2.2320508080000003" r="0.5" fill="pink
" stroke="black" stroke-width="0.03"/>
<circle cx="3.5" cy="-2.2320508080000003" r="0.5" fill="black
" stroke="black" stroke-width="0.03"/>
<circle cx="4.5" cy="-2.2320508080000003" r="0.5" fill="black
" stroke="black" stroke-width="0.03"/>
<circle cx="5.5" cy="-2.2320508080000003" r="0.5" fill="black
" stroke="black" stroke-width="0.03"/>
<circle cx="6.5" cy="-2.2320508080000003" r="0.5" fill="pink
" stroke="black" stroke-width="0.03"/>
<circle cx="7.5" cy="-2.2320508080000003" r="0.5" fill="pink
" stroke="black" stroke-width="0.03"/>
<circle cx="1.0" cy="-3.098076212" r="0.5" fill="pink
" stroke="black" stroke-width="0.03"/>
</svg>